# xmcd
#
# Track frame offsets: 
#        150
#        51858
#        75000
#        100100
#        122601
#        145896
#        176382
#        187307
#        212133
#        241790
#
# Disc length: 3598 seconds
#
# Revision: 0
# Processed by: cddbd v1.5.2PL0 Copyright (c) Steve Scherf et al.
# Submitted via: ExactAudioCopy v1.1
#
DISCID=7e0e0c0a
DTITLE=浅川マキ - DARKNESS IV disc 2 - My Favorite Songs
DYEAR=2007
DGENRE=Blues
TTITLE0=憂愁 (II)
TTITLE1=憂鬱なひとり歩き
TTITLE2=少年 (II)
TTITLE3=むかし
TTITLE4=心隠して - 語り
TTITLE5=ナイロン・カバーリング
TTITLE6=今夜はおしまい
TTITLE7=夜
TTITLE8=あの人は行った - 池袋・文芸坐 ル・ピリエ・ライヴ - 語り
TTITLE9=LOVE TIME
EXTD=
EXTT0=
EXTT1=
EXTT2=
EXTT3=
EXTT4=
EXTT5=
EXTT6=
EXTT7=
EXTT8=
EXTT9=
PLAYORDER=
